<?xml version="1.0" encoding="utf-8"?>
<!-- Generator: Adobe Illustrator 16.0.0, SVG Export Plug-In . SVG Version: 6.00 Build 0)  -->
<!DOCTYPE svg PUBLIC "-//W3C//DTD SVG 1.1//EN" "http://www.w3.org/Graphics/SVG/1.1/DTD/svg11.dtd">
<svg version="1.1" id="Layer_1" xmlns="http://www.w3.org/2000/svg" xmlns:xlink="http://www.w3.org/1999/xlink" x="0px" y="0px"
	 width="100px" height="100px" viewBox="0 0 100 100" enable-background="new 0 0 100 100" xml:space="preserve">
<g>
	<circle fill="#00AA86" cx="50" cy="50" r="50"/>
	<g>
		<path fill-rule="evenodd" clip-rule="evenodd" fill="#FFFFFF" d="M55.131,13.843c0.846,1.844,1.632,3.684,1.705,5.741
			c0.018,0.523,0.086,0.976,0.443,1.395c2.336,2.739,2.605,5.897,1.704,9.216c-1.604,5.908-2.812,11.887-3.456,17.977
			c-0.203,1.92-0.398,3.843,0.014,5.76c0.497,2.311,1.619,3.617,3.246,3.815c1.772,0.216,3.332-0.862,4.287-3.021
			c0.855-1.932,1.639-3.896,2.504-5.824c0.832-1.854,1.863-3.588,3.344-5.015c0.77-0.741,1.605-1.479,2.66-1.649
			c1.424-0.229,2.189-1.111,2.688-2.292c0.644-1.519,1.169-3.088,1.783-4.62c0.184-0.457,0.413-1.042,0.985-1.039
			c0.585,0.004,0.751,0.621,0.949,1.067c1.016,2.279,0.493,4.513-0.322,6.694c-0.329,0.883-0.455,1.748-0.496,2.677
			c-0.229,5.091-1.469,9.873-4.357,14.159c-3.081,4.573-6.019,9.239-8.597,14.12c-0.794,1.502-1.6,2.998-2.052,4.654
			c-0.219,0.803-0.629,1.533-1.166,2.174c-0.926,1.104-2.037,1.657-3.528,1.24c-1.54-0.431-2.985-0.235-4.308,0.76
			c-2.793,2.103-5.764,2.18-8.805,0.61c-1.263-0.651-2.476-1.404-3.682-2.159c-0.929-0.582-1.886-0.781-2.87-0.279
			c-0.794,0.406-1.385,0.195-1.998-0.332c-1.525-1.311-2.793-2.654-2.877-4.918c-0.072-1.922-1.062-3.691-1.744-5.494
			c-1.4-3.696-2.632-7.45-3.787-11.229c-0.634-2.074-1.456-4.061-2.431-5.989c-1.983-3.925-2.793-7.877-0.438-11.955
			c0.391-0.678,0.018-1.23-0.309-1.789c-0.486-0.832-0.987-1.656-1.443-2.504c-0.12-0.223-0.216-0.584-0.115-0.772
			c0.156-0.294,0.494-0.104,0.735,0c2.106,0.91,4.311,1.685,5.528,3.865c0.2,0.357,0.539,0.486,0.891,0.591
			c1.962,0.589,3.122,1.987,3.924,3.791c0.89,2.003,1.187,4.141,1.535,6.271c0.275,1.686,0.652,3.345,1.626,4.789
			c0.695,1.026,1.561,1.879,2.931,1.67c1.45-0.223,1.979-1.33,2.277-2.615c0.408-1.758,0.477-3.558,0.538-5.339
			c0.075-2.171,0.65-4.16,1.601-6.074c0.429-0.864,0.809-1.759,1.313-2.578c1.939-3.143,2.907-6.511,2.638-10.228
			c-0.119-1.647,0.344-3.183,1.26-4.573c1.98-3.007,3.41-6.292,4.849-9.575C54.483,14.622,54.523,14.112,55.131,13.843z"/>
	</g>
</g>
</svg>
